<svg width="103" height="28" viewBox="0 0 103 28" fill="none" xmlns="http://www.w3.org/2000/svg">
<path d="M101.9 8.24562C101.476 8.10335 100.929 8.03373 100.26 8.03373C98.9465 8.03373 97.804 8.34551 96.8235 8.97211C95.846 9.5987 95.0487 10.3555 94.4317 11.2484H94.1232L94.5875 8.64822H89.8375L89.5534 10.2586C88.8661 9.5987 88.0322 9.06595 87.0455 8.6694C86.0039 8.24865 84.7881 8.03676 83.3983 8.03676C81.6999 8.03676 80.1573 8.34249 78.7674 8.95395C77.4295 9.54422 76.2809 10.3312 75.3248 11.312C75.0988 10.9821 74.8513 10.6733 74.5856 10.3888C73.8769 9.63805 73.0552 9.05686 72.1144 8.64822C71.1735 8.23957 70.1655 8.03676 69.0841 8.03676C67.566 8.03676 66.3166 8.33643 65.3391 8.93578C64.3616 9.53514 63.6163 10.192 63.1001 10.9064H62.7915L63.5644 8.22746L65.0306 0H59.9751L58.1515 10.2616C57.4642 9.5987 56.6272 9.06292 55.6375 8.66335C54.5959 8.24259 53.3801 8.0307 51.9903 8.0307C50.2919 8.0307 48.7493 8.33643 47.3594 8.94789C45.9695 9.55935 44.7874 10.3827 43.8099 11.4149C43.8068 11.4179 43.8068 11.4179 43.8038 11.421C43.6938 11.2575 43.5808 11.1001 43.4586 10.9488C43.2967 10.7459 43.1257 10.5522 42.9393 10.3645C42.2306 9.65016 41.357 9.08411 40.3154 8.66335C39.2737 8.24259 38.058 8.0307 36.6681 8.0307C34.9697 8.0307 33.4271 8.33643 32.0372 8.94789C31.3011 9.27178 30.626 9.65622 30.0059 10.0982L30.7299 8.64216H25.091L19.9958 20.387H19.7239L17.9858 8.64519H12.7379L6.86993 20.387H6.60112L5.40369 8.64519H0L2.77974 27.3885H8.14372L14.0514 15.568H14.2836L15.982 27.3885H21.4254L25.3995 19.373C25.427 20.5051 25.6286 21.5766 26.0104 22.5846C26.4228 23.6683 27.0154 24.6128 27.7852 25.4149C28.558 26.2171 29.4897 26.8497 30.5832 27.3098C31.6768 27.7699 32.92 27.997 34.3069 27.997C36.5459 27.997 38.4123 27.5369 39.903 26.6197C40.6269 26.1747 41.302 25.645 41.9374 25.0305C41.3326 24.3161 40.853 23.4988 40.5048 22.5846C40.2909 22.0186 40.1321 21.4344 40.0313 20.832L39.9824 20.8078C39.3898 21.7008 38.6689 22.3818 37.8197 22.8541C36.9705 23.3263 35.9289 23.5624 34.6917 23.5624C33.534 23.5624 32.5229 23.2385 31.6615 22.5877C30.8001 21.9369 30.3419 20.9228 30.29 19.5455V19.1641H39.8847H40.7094C40.7125 20.3749 40.9171 21.5161 41.3265 22.5877C41.7388 23.6714 42.3314 24.6158 43.1012 25.4179C43.8741 26.2201 44.8057 26.8528 45.8993 27.3129C46.9929 27.773 48.2361 28 49.6229 28C51.3702 28 52.8853 27.7155 54.1774 27.1585L55.326 20.8229L55.2985 20.8078C54.7059 21.7008 53.985 22.3818 53.1358 22.8541C52.2866 23.3263 51.2449 23.5624 50.0078 23.5624C48.8501 23.5624 47.839 23.2385 46.9776 22.5877C46.1162 21.9369 45.658 20.9228 45.606 19.5455V19.1641H56.557L55.0969 27.3885H59.8438L60.2287 25.1304H60.5372C61.0504 25.9477 61.8049 26.6288 62.7946 27.1766C63.7843 27.7245 64.9756 28 66.3655 28C67.8073 28 69.1636 27.7124 70.4373 27.1403C71.7111 26.5652 72.823 25.7691 73.7761 24.749C73.8036 24.7187 73.8311 24.6854 73.8586 24.6551C74.0571 24.9215 74.2709 25.1758 74.5031 25.4179C75.2759 26.2201 76.2076 26.8528 77.3012 27.3129C78.3947 27.773 79.638 28 81.0248 28C82.7965 28 84.3299 27.7094 85.6343 27.1343L86.7737 20.8471L86.7003 20.8078C86.1077 21.7008 85.3868 22.3818 84.5377 22.8541C83.6885 23.3263 82.6468 23.5624 81.4097 23.5624C80.252 23.5624 79.2409 23.2385 78.3795 22.5877C77.518 21.9369 77.0598 20.9228 77.0079 19.5455V19.1641H87.9741L86.5171 27.3885H91.5725L93.1548 18.2742C93.4389 16.6335 94.0743 15.3077 95.0671 14.2936C96.0568 13.2826 97.2878 12.7741 98.754 12.7741C99.2947 12.7741 99.7498 12.8255 100.126 12.9284C100.498 13.0314 100.825 13.1464 101.109 13.2735L103 8.79957C102.691 8.56951 102.325 8.38789 101.9 8.24562ZM40.3704 15.6074H30.9895C31.3499 14.6387 32.0006 13.8154 32.9384 13.1403C33.8762 12.4653 34.9789 12.1263 36.2374 12.1263C37.6273 12.1263 38.6628 12.4653 39.344 13.1403C40.0252 13.8154 40.3673 14.5872 40.3673 15.453V15.6074H40.3704ZM55.6925 15.6074H46.3117C46.6721 14.6387 47.3228 13.8154 48.2605 13.1403C49.1983 12.4653 50.301 12.1263 51.5596 12.1263C52.9494 12.1263 53.985 12.4653 54.6662 13.1403C55.3473 13.8154 55.6895 14.5872 55.6895 15.453V15.6074H55.6925ZM71.3201 19.6787C71.0116 20.4052 70.5931 21.0439 70.0647 21.5918C69.5362 22.1397 68.9131 22.5725 68.1922 22.8934C67.4713 23.2112 66.7107 23.3717 65.9134 23.3717C65.2964 23.3717 64.716 23.2748 64.1753 23.0841C63.6346 22.8934 63.1581 22.6058 62.7457 22.2244C62.3333 21.843 62.0065 21.3708 61.7621 20.8078C61.5177 20.2478 61.3956 19.597 61.3956 18.8584C61.3956 18.0441 61.53 17.2662 61.8018 16.5245C62.0737 15.7859 62.4647 15.1291 62.9779 14.5539C63.4911 13.9788 64.1173 13.5217 64.8504 13.1766C65.5835 12.8316 66.4144 12.659 67.3399 12.659C68.7298 12.659 69.8173 13.0858 70.6023 13.9395C71.3874 14.7931 71.7783 15.9222 71.7783 17.3237C71.7845 18.1682 71.6287 18.9522 71.3201 19.6787ZM87.1036 15.6074H77.7227C78.0832 14.6387 78.7338 13.8154 79.6716 13.1403C80.6094 12.4653 81.7121 12.1263 82.9706 12.1263C84.3605 12.1263 85.396 12.4653 86.0772 13.1403C86.7584 13.8154 87.1005 14.5872 87.1005 15.453V15.6074H87.1036Z" fill="#EAEAEA"/>
</svg>
