<svg width="70" height="39" viewBox="0 0 70 39" fill="none" xmlns="http://www.w3.org/2000/svg">
<path d="M35.6616 20.2423C37.5398 20.2423 39.3094 20.4413 40.9704 20.8391C42.6314 21.237 44.1122 21.7252 45.4126 22.3035C46.7131 22.8819 47.7246 23.7494 48.4473 24.906C49.1699 26.0627 49.5312 27.2919 49.5312 28.5936V32.3898H21.7965V28.7023C21.7965 27.3281 22.1579 26.0627 22.8805 24.906C23.6031 23.7494 24.6147 22.8819 25.9151 22.3035C27.2156 21.7252 28.6963 21.237 30.3573 20.8391C32.0183 20.4413 33.7879 20.2423 35.6662 20.2423H35.6616ZM17.1348 20.7836C18.4352 20.7836 19.5369 20.3317 20.4398 19.428C21.3428 18.5242 21.7942 17.4578 21.7942 16.2286C21.7942 14.927 21.3428 13.8243 20.4398 12.9205C19.5369 12.0167 18.4352 11.5649 17.1348 11.5649C15.9068 11.5649 14.8413 12.0167 13.9384 12.9205C13.0354 13.8243 12.584 14.927 12.584 16.2286C12.584 17.4578 13.0354 18.5242 13.9384 19.428C14.8413 20.3317 15.9068 20.7836 17.1348 20.7836ZM19.7349 23.3862C19.3744 23.3137 18.9768 23.2597 18.5423 23.2242C18.1078 23.1888 17.6386 23.171 17.1348 23.171C15.9792 23.171 14.8775 23.2797 13.8297 23.4972C12.782 23.7147 11.7527 24.0401 10.7419 24.4734C9.87446 24.8343 9.18803 25.4127 8.68264 26.2085C8.17725 27.0043 7.92456 27.8718 7.92456 28.811V32.3898H18.3251V28.7023C18.3251 26.8223 18.7942 25.051 19.7326 23.3885L19.7349 23.3862ZM54.1883 20.7836C55.4164 20.7836 56.4818 20.3317 57.3848 19.428C58.2877 18.5242 58.7391 17.4578 58.7391 16.2286C58.7391 14.927 58.2877 13.8243 57.3848 12.9205C56.4818 12.0167 55.4164 11.5649 54.1883 11.5649C52.8879 11.5649 51.7862 12.0167 50.8833 12.9205C49.9804 13.8243 49.5289 14.927 49.5289 16.2286C49.5289 17.4578 49.9804 18.5242 50.8833 19.428C51.7862 20.3317 52.8879 20.7836 54.1883 20.7836ZM63.3963 28.8087C63.3963 27.8695 63.1436 27.002 62.6382 26.2062C62.1328 25.4104 61.4464 24.832 60.5789 24.4711C59.5681 24.0378 58.5388 23.7124 57.4911 23.4949C56.4433 23.2774 55.3416 23.1687 54.186 23.1687C53.6806 23.1687 53.2115 23.1864 52.7785 23.2219C52.3455 23.2574 51.948 23.3114 51.5859 23.3839C52.5243 25.0464 52.9934 26.8177 52.9934 28.6977V32.3852H63.3939V28.8064L63.3963 28.8087ZM35.6616 4.62708C36.962 4.62708 38.1353 4.93398 39.1816 5.54779C40.2278 6.16161 41.0583 6.99288 41.6731 8.0416C42.2878 9.09033 42.5945 10.2647 42.5929 11.5649C42.5914 12.865 42.2848 14.0394 41.6731 15.0881C41.0614 16.1368 40.2309 16.9681 39.1816 17.5819C38.1323 18.1957 36.9589 18.5026 35.6616 18.5026C34.3642 18.5026 33.1909 18.1957 32.1416 17.5819C31.0923 16.9681 30.2618 16.1368 29.6501 15.0881C29.0384 14.0394 28.7317 12.865 28.7302 11.5649C28.7287 10.2647 29.0353 9.09033 29.6501 8.0416C30.2649 6.99288 31.0954 6.16161 32.1416 5.54779C33.1878 4.93398 34.3611 4.62708 35.6616 4.62708Z" fill="#EAEAEA"/>
</svg>
