<svg width="16" height="16" viewBox="0 0 16 16" fill="none" xmlns="http://www.w3.org/2000/svg">
<path d="M11.3333 2.00008V3.33341H10C9.632 3.33341 9.298 3.48341 9.05733 3.72408C8.81667 3.96475 8.66667 4.29875 8.66667 4.66675V6.66675C8.66667 7.03475 8.96533 7.33341 9.33333 7.33341H11.146L10.8127 8.66675H9.33333C8.96533 8.66675 8.66667 8.96541 8.66667 9.33341V14.0001H7.33333V9.33341C7.33333 8.96541 7.03467 8.66675 6.66667 8.66675H5.33333V7.33341H6.66667C7.03467 7.33341 7.33333 7.03475 7.33333 6.66675V4.66675C7.33333 3.93008 7.63133 3.26475 8.11467 2.78141C8.598 2.29808 9.26333 2.00008 10 2.00008H11.3333ZM12 0.666748H10C8.89533 0.666748 7.89467 1.11541 7.17133 1.83808C6.448 2.56075 6 3.56208 6 4.66675V6.00008H4.66667C4.29867 6.00008 4 6.29875 4 6.66675V9.33341C4 9.70141 4.29867 10.0001 4.66667 10.0001H6V14.6667C6 15.0347 6.29867 15.3334 6.66667 15.3334H9.33333C9.70133 15.3334 10 15.0347 10 14.6667V10.0001H11.3333C11.644 10.0001 11.9053 9.78741 11.98 9.49541L12.6467 6.82875C12.736 6.47141 12.5187 6.10941 12.1613 6.02008C12.106 6.00608 12.05 5.99941 12 6.00008H10V4.66675H12C12.368 4.66675 12.6667 4.36808 12.6667 4.00008V1.33341C12.6667 0.965415 12.368 0.666748 12 0.666748Z" fill="#EAEAEA"/>
</svg>
