<svg width="16" height="16" viewBox="0 0 16 16" fill="none" xmlns="http://www.w3.org/2000/svg">
<path d="M4.66669 0.666748C3.56202 0.666748 2.56135 1.11541 1.83802 1.83808C1.11469 2.56075 0.666687 3.56208 0.666687 4.66675V11.3334C0.666687 12.4381 1.11535 13.4387 1.83802 14.1621C2.56069 14.8854 3.56202 15.3334 4.66669 15.3334H11.3334C12.438 15.3334 13.4387 14.8847 14.162 14.1621C14.8854 13.4394 15.3334 12.4381 15.3334 11.3334V4.66675C15.3334 3.56208 14.8847 2.56141 14.162 1.83808C13.4394 1.11475 12.438 0.666748 11.3334 0.666748H4.66669ZM4.66669 2.00008H11.3334C12.07 2.00008 12.7354 2.29808 13.2187 2.78141C13.702 3.26475 14 3.93008 14 4.66675V11.3334C14 12.0701 13.702 12.7354 13.2187 13.2187C12.7354 13.7021 12.07 14.0001 11.3334 14.0001H4.66669C3.93002 14.0001 3.26469 13.7021 2.78135 13.2187C2.29802 12.7354 2.00002 12.0701 2.00002 11.3334V4.66675C2.00002 3.93008 2.29802 3.26475 2.78135 2.78141C3.26469 2.29808 3.93002 2.00008 4.66669 2.00008ZM11.326 7.48208C11.226 6.83408 10.9454 6.24408 10.53 5.77075C10.0274 5.19675 9.32735 4.79408 8.52402 4.67475C8.21469 4.62541 7.87735 4.62341 7.53935 4.67341C6.62869 4.80808 5.85869 5.30075 5.35135 5.98475C4.84402 6.66875 4.59602 7.54941 4.73135 8.45941C4.86669 9.36941 5.35869 10.1401 6.04269 10.6474C6.72669 11.1547 7.60735 11.4027 8.51735 11.2674C9.42735 11.1321 10.198 10.6401 10.7054 9.95608C11.2127 9.27208 11.4607 8.39141 11.3254 7.48141L11.326 7.48208ZM10.0074 7.67808C10.0887 8.22475 9.94069 8.75075 9.63535 9.16275C9.33002 9.57475 8.86869 9.86875 8.32269 9.94941C7.77669 10.0301 7.25002 9.88275 6.83802 9.57741C6.42602 9.27208 6.13202 8.81075 6.05135 8.26475C5.97069 7.71875 6.11802 7.19208 6.42335 6.78008C6.72869 6.36808 7.19002 6.07408 7.73602 5.99341C7.94469 5.96275 8.14602 5.96541 8.31602 5.99208C8.80935 6.06541 9.22669 6.30541 9.52802 6.64941C9.77802 6.93475 9.94802 7.29141 10.008 7.67808H10.0074ZM11.6667 5.00008C12.0347 5.00008 12.3334 4.70141 12.3334 4.33341C12.3334 3.96541 12.0347 3.66675 11.6667 3.66675C11.2987 3.66675 11 3.96541 11 4.33341C11 4.70141 11.2987 5.00008 11.6667 5.00008Z" fill="#EAEAEA"/>
</svg>
