<svg width="43" height="64" viewBox="0 0 43 64" fill="none" xmlns="http://www.w3.org/2000/svg">
<g clip-path="url(#clip0)">
<path d="M34.205 -1.03394H4.07945C2.0656 -1.03394 0.433044 0.495089 0.433044 2.38124V59.5509C0.433044 61.437 2.0656 62.9661 4.07945 62.9661H34.205C36.2189 62.9661 37.8515 61.437 37.8515 59.5509V2.38124C37.8515 0.495089 36.2189 -1.03394 34.205 -1.03394Z" fill="#EAEAEA"/>
<path d="M33.8101 4.02539H4.47394C3.71589 4.02539 3.10138 4.60094 3.10138 5.31091V54.9992C3.10138 55.7091 3.71589 56.2847 4.47394 56.2847H33.8101C34.5682 56.2847 35.1827 55.7091 35.1827 54.9992V5.31091C35.1827 4.60094 34.5682 4.02539 33.8101 4.02539Z" fill="#141414"/>
<path d="M33.1406 62.7767C38.5168 62.7767 42.8751 58.1278 42.8751 52.3932C42.8751 46.6586 38.5168 42.0098 33.1406 42.0098C27.7644 42.0098 23.4061 46.6586 23.4061 52.3932C23.4061 58.1278 27.7644 62.7767 33.1406 62.7767Z" fill="#EAEAEA"/>
<path d="M33.1404 63.8083C31.0236 63.8093 28.954 63.1408 27.1935 61.8871C25.4329 60.6335 24.0604 58.8511 23.2496 56.7653C22.4389 54.6795 22.2262 52.3842 22.6385 50.1695C23.0509 47.9548 24.0697 45.9203 25.5662 44.3233C27.0626 42.7263 28.9695 41.6386 31.0456 41.1977C33.1216 40.7567 35.2737 40.9825 37.2294 41.8463C39.1852 42.7101 40.8569 44.1732 42.0331 46.0506C43.2092 47.9279 43.837 50.1351 43.837 52.3931C43.8342 55.4187 42.7066 58.3197 40.7013 60.4597C38.6961 62.5996 35.977 63.8039 33.1404 63.8083ZM33.1404 43.0414C31.4002 43.0359 29.6976 43.5813 28.2482 44.6086C26.7988 45.6359 25.6677 47.0989 24.9983 48.8122C24.3288 50.5256 24.1509 52.4123 24.4873 54.2335C24.8236 56.0547 25.6591 57.7285 26.8878 59.043C28.1165 60.3575 29.6832 61.2535 31.3896 61.6177C33.096 61.9818 34.8653 61.7977 36.4735 61.0886C38.0818 60.3795 39.4566 59.1774 40.424 57.6344C41.3913 56.0914 41.9077 54.2769 41.9077 52.4207C41.9077 49.9379 40.9848 47.5564 39.3414 45.7982C37.6979 44.0401 35.468 43.0487 33.1404 43.0414Z" fill="#141414"/>
<path d="M31.4542 57.0551L27.518 52.8565C27.362 52.6873 27.2745 52.4594 27.2745 52.222C27.2745 51.9847 27.362 51.7568 27.518 51.5875C27.5959 51.5038 27.6886 51.4373 27.7907 51.392C27.8928 51.3466 28.0023 51.3233 28.1129 51.3233C28.2235 51.3233 28.333 51.3466 28.435 51.392C28.5371 51.4373 28.6298 51.5038 28.7077 51.5875L31.4542 54.5172L37.568 47.9958C37.7267 47.8294 37.9403 47.7361 38.1629 47.7361C38.3854 47.7361 38.599 47.8294 38.7577 47.9958C38.8362 48.0789 38.8985 48.1777 38.941 48.2866C38.9836 48.3955 39.0055 48.5123 39.0055 48.6303C39.0055 48.7483 38.9836 48.8651 38.941 48.974C38.8985 49.0829 38.8362 49.1817 38.7577 49.2648L31.4542 57.0551Z" fill="#141414"/>
</g>
<defs>
<clipPath id="clip0">
<rect width="43" height="64" fill="white"/>
</clipPath>
</defs>
</svg>
