<svg width="60" height="64" viewBox="0 0 60 64" fill="none" xmlns="http://www.w3.org/2000/svg">
<g clip-path="url(#clip1)">
<path d="M28.8198 2.09233V61.5241C28.8197 61.6685 28.7827 61.8101 28.7129 61.9338C28.643 62.0575 28.5428 62.1585 28.4232 62.226C28.3035 62.2936 28.1688 62.325 28.0336 62.317C27.8985 62.309 27.7679 62.2618 27.656 62.1806L0.0921715 42.2523C0.00951114 42.1917 -0.0609181 42.1141 -0.114949 42.024C-0.168981 41.9338 -0.205517 41.8331 -0.222396 41.7276C-0.239275 41.6222 -0.236154 41.5142 -0.213217 41.41C-0.190281 41.3059 -0.147996 41.2077 -0.088863 41.1213L27.4801 1.61785C27.5739 1.48506 27.7044 1.38701 27.8533 1.33752C28.0021 1.28803 28.1617 1.28959 28.3097 1.34199C28.4576 1.39439 28.5864 1.49498 28.6779 1.6296C28.7694 1.76421 28.819 1.92606 28.8198 2.09233Z" fill="#EAEAEA"/>
<path d="M30.7236 2.09233V61.5241C30.7237 61.6685 30.7606 61.8101 30.8305 61.9338C30.9004 62.0575 31.0006 62.1585 31.1202 62.226C31.2399 62.2936 31.3746 62.325 31.5097 62.317C31.6449 62.309 31.7755 62.2618 31.8874 62.1806L59.4512 42.2523C59.5339 42.1917 59.6043 42.1141 59.6583 42.024C59.7124 41.9338 59.7489 41.8331 59.7658 41.7276C59.7826 41.6222 59.7795 41.5142 59.7566 41.41C59.7337 41.3059 59.6914 41.2077 59.6322 41.1213L32.0633 1.61785C31.9695 1.48506 31.839 1.38701 31.6901 1.33752C31.5413 1.28803 31.3817 1.28959 31.2337 1.34199C31.0858 1.39439 30.957 1.49498 30.8655 1.6296C30.774 1.76421 30.7244 1.92606 30.7236 2.09233Z" fill="#EAEAEA"/>
</g>
<defs>
<clipPath id="clip1">
<rect width="60" height="64" fill="white"/>
</clipPath>
</defs>
</svg>
