<svg width="46" height="73" viewBox="0 0 46 73" fill="none" xmlns="http://www.w3.org/2000/svg">
<g clip-path="url(#clip0)">
<path d="M32.9107 14.5109L13.8977 14.5109C13.8977 14.5109 17.1204 5.1578 23.4042 -0.200317C29.6881 5.1578 32.9107 14.5109 32.9107 14.5109Z" fill="#EAEAEA"/>
<path d="M33.7476 16.2085H13.0605C13.0605 16.2085 5.88577 33.7849 13.766 50.9953H33.0421C40.9343 33.7975 33.7476 16.2085 33.7476 16.2085ZM23.4041 39.9067C22.2215 39.9067 21.0656 39.5365 20.0823 38.8431C19.0991 38.1496 18.3328 37.1639 17.8802 36.0107C17.4277 34.8575 17.3093 33.5886 17.54 32.3643C17.7707 31.1401 18.3401 30.0156 19.1763 29.133C20.0125 28.2503 21.0778 27.6493 22.2376 27.4057C23.3974 27.1622 24.5996 27.2872 25.6921 27.7649C26.7846 28.2426 27.7184 29.0515 28.3754 30.0893C29.0323 31.1272 29.383 32.3474 29.383 33.5956C29.383 35.2694 28.7531 36.8746 27.6318 38.0582C26.5105 39.2418 24.9898 39.9067 23.4041 39.9067Z" fill="#EAEAEA"/>
<path d="M37.4604 21.8885C37.4604 21.8885 40.5157 31.0586 38.3513 43.8701L45.9445 43.5356C45.9445 43.5356 49.6096 31.8916 37.4604 21.8885Z" fill="#EAEAEA"/>
<path d="M9.34777 21.8885C9.34777 21.8885 6.29253 31.0586 8.45691 43.8701L0.86366 43.5356C0.86366 43.5356 -2.80142 31.8916 9.34777 21.8885Z" fill="#EAEAEA"/>
<path d="M28.9466 58.9727C28.9466 62.204 24.4565 73.0086 23.4042 73.0086C22.3519 73.0086 17.8617 62.204 17.8617 58.9727C17.8617 57.4211 18.4456 55.933 19.485 54.8359C20.5245 53.7387 21.9342 53.1223 23.4042 53.1223C24.8741 53.1223 26.2839 53.7387 27.3233 54.8359C28.3627 55.933 28.9466 57.4211 28.9466 58.9727Z" fill="#EAEAEA"/>
</g>
<defs>
<clipPath id="clip0">
<rect width="46" height="73" fill="white"/>
</clipPath>
</defs>
</svg>
