<svg width="40" height="67" viewBox="0 0 40 67" fill="none" xmlns="http://www.w3.org/2000/svg">
<path d="M35.1967 1H4.33636C2.27339 1 0.601013 2.52902 0.601013 4.41517V61.5848C0.601013 63.471 2.27339 65 4.33636 65H35.1967C37.2597 65 38.9321 63.471 38.9321 61.5848V4.41517C38.9321 2.52902 37.2597 1 35.1967 1Z" fill="#EAEAEA"/>
<path d="M34.7922 6.0592H4.7405C3.96397 6.0592 3.33447 6.63475 3.33447 7.34472V57.033C3.33447 57.743 3.96397 58.3185 4.7405 58.3185H34.7922C35.5687 58.3185 36.1982 57.743 36.1982 57.033V7.34472C36.1982 6.63475 35.5687 6.0592 34.7922 6.0592Z" fill="#141414"/>
<path d="M28.4077 27.9959C28.3734 27.9468 28.326 27.9065 28.2702 27.8785C28.2143 27.8506 28.1516 27.8359 28.0879 27.8359H20.9008L21.631 14.3297C21.6361 14.2503 21.6108 14.1718 21.5594 14.1077C21.5081 14.0436 21.4339 13.9978 21.3497 13.9782C21.2654 13.9586 21.1764 13.9665 21.0978 14.0004C21.0192 14.0343 20.9559 14.0922 20.9189 14.1641L10.7629 33.6455C10.7333 33.6965 10.7178 33.7533 10.7178 33.811C10.7178 33.8687 10.7333 33.9256 10.7629 33.9766C10.7969 34.0259 10.8441 34.0666 10.9 34.0946C10.956 34.1226 11.0189 34.137 11.0827 34.1366H18.475L17.437 48.0952C17.4311 48.175 17.4554 48.2543 17.506 48.3197C17.5566 48.385 17.6303 48.4324 17.7146 48.4538H17.8112C17.8823 48.4535 17.9519 48.4346 18.0118 48.3995C18.0716 48.3643 18.1193 48.3142 18.1491 48.2552L28.4077 28.3159C28.4353 28.2663 28.4497 28.2115 28.4497 28.1559C28.4497 28.1003 28.4353 28.0454 28.4077 27.9959V27.9959Z" fill="#EAEAEA"/>
</svg>
