<svg width="16" height="16" viewBox="0 0 16 16" fill="none" xmlns="http://www.w3.org/2000/svg">
<path d="M13.6405 2.325C12.1435 0.825 10.153 0 8.03103 0C3.66203 0 0.106027 3.556 0.106027 7.928C0.106027 9.325 0.471527 10.6905 1.16553 11.8905L0.0405273 16L4.24353 14.897C5.40303 15.528 6.70603 15.8625 8.03103 15.8625H8.03403C12.403 15.8625 15.962 12.306 15.962 7.9345C15.962 5.8155 15.137 3.825 13.64 2.325H13.6405ZM8.03453 14.525C6.85003 14.525 5.69053 14.2065 4.67803 13.6065L4.43753 13.4625L1.94403 14.1155L2.60953 11.684L2.45303 11.434C1.79053 10.387 1.44353 9.1745 1.44353 7.928C1.44353 4.2935 4.39953 1.3375 8.03753 1.3375C9.79703 1.3375 11.453 2.025 12.697 3.2685C13.941 4.5155 14.625 6.1685 14.625 7.931C14.622 11.5685 11.6655 14.525 8.03453 14.525ZM11.647 9.5875C11.45 9.4875 10.475 9.0095 10.294 8.9435C10.113 8.8775 9.98153 8.8435 9.84703 9.0435C9.71603 9.2405 9.33453 9.6875 9.21903 9.8215C9.10353 9.9525 8.98803 9.9715 8.79103 9.8715C8.59403 9.7715 7.95353 9.562 7.19703 8.887C6.60953 8.362 6.20953 7.712 6.09403 7.515C5.97853 7.318 6.08153 7.2085 6.18153 7.112C6.27203 7.0245 6.37853 6.8805 6.47853 6.765C6.57853 6.6495 6.60953 6.568 6.67553 6.434C6.74103 6.303 6.71003 6.187 6.66003 6.087C6.61003 5.987 6.21303 5.012 6.05053 4.615C5.89103 4.2275 5.72553 4.2805 5.60353 4.2745C5.48803 4.2685 5.35653 4.2685 5.22553 4.2685C5.09453 4.2685 4.87853 4.3185 4.69753 4.5155C4.51603 4.7125 4.00403 5.1935 4.00403 6.1685C4.00403 7.1435 4.71353 8.084 4.81353 8.2185C4.91353 8.3495 6.21053 10.353 8.19803 11.209C8.67003 11.412 9.03853 11.534 9.32603 11.6275C9.80103 11.7775 10.2325 11.7555 10.573 11.7055C10.954 11.649 11.745 11.2275 11.9105 10.765C12.076 10.3025 12.076 9.9055 12.026 9.8245C11.979 9.737 11.848 9.687 11.648 9.587L11.647 9.5875Z" fill="#EAEAEA"/>
</svg>
